<?xml version="1.0" encoding="UTF-8" standalone="no"?>
<!-- Created with Inkscape (http://www.inkscape.org/) -->

<svg
   xmlns:dc="http://purl.org/dc/elements/1.1/"
   xmlns:cc="http://creativecommons.org/ns#"
   xmlns:rdf="http://www.w3.org/1999/02/22-rdf-syntax-ns#"
   xmlns:svg="http://www.w3.org/2000/svg"
   xmlns="http://www.w3.org/2000/svg"
   xmlns:sodipodi="http://sodipodi.sourceforge.net/DTD/sodipodi-0.dtd"
   xmlns:inkscape="http://www.inkscape.org/namespaces/inkscape"
   width="87.509499"
   height="73.078369"
   id="svg4023"
   version="1.1"
   inkscape:version="0.48.4 r9939"
   sodipodi:docname="New document 4">
  <defs
     id="defs4025" />
  <sodipodi:namedview
     id="base"
     pagecolor="#ffffff"
     bordercolor="#666666"
     borderopacity="1.0"
     inkscape:pageopacity="0.0"
     inkscape:pageshadow="2"
     inkscape:zoom="3.959798"
     inkscape:cx="185.92281"
     inkscape:cy="91.695865"
     inkscape:document-units="px"
     inkscape:current-layer="layer1"
     showgrid="false"
     showguides="true"
     inkscape:guide-bbox="true"
     fit-margin-top="5"
     fit-margin-left="5"
     fit-margin-right="5"
     fit-margin-bottom="5"
     inkscape:window-width="1680"
     inkscape:window-height="1001"
     inkscape:window-x="-4"
     inkscape:window-y="-4"
     inkscape:window-maximized="1" />
  <metadata
     id="metadata4028">
    <rdf:RDF>
      <cc:Work
         rdf:about="">
        <dc:format>image/svg+xml</dc:format>
        <dc:type
           rdf:resource="http://purl.org/dc/dcmitype/StillImage" />
        <dc:title></dc:title>
      </cc:Work>
    </rdf:RDF>
  </metadata>
  <g
     inkscape:label="Layer 1"
     inkscape:groupmode="layer"
     id="layer1"
     transform="translate(-356.24525,-475.823)">
    <g
       id="g4059">
      <path
         id="path3423"
         style="fill:#000000;fill-opacity:1;fill-rule:nonzero;stroke:none"
         d="m 376.65787,483.548 5.45,0 0,16.34875 -5.45,0 0,-16.34875 z"
         inkscape:connector-curvature="0" />
      <path
         id="path3425"
         style="fill:#000000;fill-opacity:1;fill-rule:nonzero;stroke:none"
         d="m 376.65787,502.62175 21.7975,0 0,2.72375 -21.7975,0 0,-2.72375 z"
         inkscape:connector-curvature="0" />
      <path
         id="path3427"
         style="fill:#000000;fill-opacity:1;fill-rule:nonzero;stroke:none"
         d="m 393.00662,483.548 5.45,0 0,16.34875 -5.45,0 0,-16.34875 z"
         inkscape:connector-curvature="0" />
      <path
         id="path3429"
         style="fill:#000000;fill-opacity:1;fill-rule:nonzero;stroke:none"
         d="m 384.83287,480.823 5.45,0 0,16.34875 -5.45,0 0,-16.34875 z"
         inkscape:connector-curvature="0" />
      <g
         style="fill:#000000"
         transform="matrix(1.25,0,0,-1.25,406.32525,520.529)"
         id="g3439">
        <path
           id="path3441"
           style="fill:#000000;fill-opacity:1;fill-rule:nonzero;stroke:none"
           d="m 0,0 -2.5,3.519 0,-6.631 -2.705,0 0,9.806 2.263,0.003 c 0.501,-0.013 0.944,-0.29 1.217,-0.708 L 0.003,3.41 1.731,5.989 c 0.273,0.418 0.715,0.695 1.216,0.708 l 2.264,-0.003 0,-9.806 -2.705,0 0,6.631 L 0,0 z m -27.699,4.839 c -0.295,0.064 -0.659,0.135 -0.95,0.16 -2.438,0.213 -4.116,-0.789 -4.116,-3.176 0,-2.446 1.678,-3.389 4.116,-3.176 0.271,0.024 0.635,0.1 0.95,0.176 l 0,-1.779 c -0.521,-0.086 -1.149,-0.171 -1.679,-0.217 -3.96,-0.347 -6.661,1.859 -6.686,4.996 0.025,3.137 2.726,5.343 6.686,4.996 0.53,-0.047 1.158,-0.131 1.679,-0.217 l 0,-1.763 z m 7.541,-4.131 -3.573,0 0,-3.82 -2.955,0 0,9.809 1.45,0 c 0.819,-0.021 1.48,-0.738 1.505,-1.63 l 0,-2.187 3.573,0 0,3.817 2.964,0 0,-9.809 -2.964,0 0,3.82 z m 7.008,0.052 c 0,-1.186 0.384,-2.191 1.963,-2.191 1.578,0 1.937,1.005 1.937,2.191 l 0,5.937 2.955,0 0,-6.337 c 0,-2.46 -1.87,-3.569 -4.892,-3.569 -3.023,0 -4.918,0.516 -4.918,3.569 l 0,6.337 1.45,0 c 0.819,-0.022 1.48,-0.746 1.505,-1.646 l 0,-4.291 z"
           inkscape:connector-curvature="0" />
      </g>
      <g
         style="fill:#000000"
         transform="matrix(1.25,0,0,-1.25,363.3085,543.89512)"
         id="g3443">
        <path
           id="path3445"
           style="fill:#000000;fill-opacity:1;fill-rule:nonzero;stroke:none"
           d="m 0,0 c 0.413,0 0.678,0.211 0.865,0.475 l 0,-0.422 0.581,0 0,3.506 -0.581,0 0,-1.364 C 0.682,2.431 0.418,2.642 0,2.642 c -0.606,0 -1.177,-0.475 -1.177,-1.316 l 0,-0.01 C -1.177,0.475 -0.596,0 0,0 m 0.139,0.504 c -0.394,0 -0.73,0.322 -0.73,0.812 l 0,0.01 c 0,0.504 0.331,0.812 0.73,0.812 0.39,0 0.736,-0.322 0.736,-0.812 l 0,-0.01 C 0.875,0.831 0.529,0.504 0.139,0.504 m 3.099,-0.509 c 0.466,0 0.798,0.187 1.038,0.475 L 3.935,0.773 C 3.733,0.576 3.531,0.47 3.248,0.47 2.873,0.47 2.58,0.701 2.517,1.115 l 1.864,0 c 0.005,0.057 0.01,0.11 0.01,0.163 0,0.73 -0.408,1.364 -1.215,1.364 -0.726,0 -1.24,-0.596 -1.24,-1.321 l 0,-0.01 c 0,-0.783 0.567,-1.316 1.302,-1.316 M 2.512,1.498 c 0.053,0.395 0.303,0.669 0.659,0.669 0.384,0 0.605,-0.294 0.644,-0.669 l -1.303,0 z m 3.748,-1.445 0.581,0 0,3.507 -0.581,0 0,-3.507 z M 7.389,2.056 C 7.874,2.095 8.128,2.32 8.128,2.854 l 0,0.561 -0.638,0 0,-0.657 0.245,0 C 7.759,2.508 7.619,2.359 7.326,2.306 L 7.389,2.056 z M 10.146,0 c 0.88,0 1.446,0.504 1.446,1.508 l 0,1.907 -0.59,0 0,-1.936 c 0,-0.62 -0.322,-0.937 -0.846,-0.937 -0.529,0 -0.851,0.337 -0.851,0.961 l 0,1.912 -0.59,0 0,-1.936 C 8.715,0.504 9.272,0 10.146,0 m 2.095,0.053 0.581,0 0,1.431 c 0,0.394 0.235,0.63 0.572,0.63 0.346,0 0.543,-0.226 0.543,-0.62 l 0,-1.441 0.581,0 0,1.614 c 0,0.591 -0.332,0.975 -0.903,0.975 -0.394,0 -0.63,-0.207 -0.793,-0.447 l 0,0.394 -0.581,0 0,-2.536 z m 2.892,2.926 0.624,0 0,0.552 -0.624,0 0,-0.552 z m 0.024,-2.926 0.581,0 0,2.536 -0.581,0 0,-2.536 z m 2.046,-0.019 0.524,0 1.037,2.555 -0.61,0 -0.686,-1.864 -0.683,1.864 -0.624,0 1.042,-2.555 z m 2.979,-0.039 c 0.466,0 0.797,0.187 1.037,0.475 L 20.878,0.773 C 20.677,0.576 20.475,0.47 20.191,0.47 c -0.375,0 -0.668,0.231 -0.73,0.645 l 1.864,0 c 0.005,0.057 0.009,0.11 0.009,0.163 0,0.73 -0.408,1.364 -1.215,1.364 -0.725,0 -1.239,-0.596 -1.239,-1.321 l 0,-0.01 c 0,-0.783 0.566,-1.316 1.302,-1.316 m -0.726,1.503 c 0.053,0.395 0.303,0.669 0.658,0.669 0.385,0 0.606,-0.294 0.644,-0.669 l -1.302,0 z m 2.369,-1.445 0.581,0 0,0.965 c 0,0.673 0.355,1.005 0.864,1.005 l 0.034,0 0,0.614 c -0.447,0.019 -0.74,-0.24 -0.898,-0.619 l 0,0.571 -0.581,0 0,-2.536 z m 2.757,-0.048 c 0.529,0 0.941,0.264 0.941,0.797 l 0,0.009 c 0,0.457 -0.417,0.625 -0.787,0.741 -0.298,0.096 -0.572,0.173 -0.572,0.355 l 0,0.01 c 0,0.149 0.13,0.254 0.356,0.254 0.211,0 0.471,-0.091 0.716,-0.24 l 0.23,0.413 c -0.269,0.178 -0.615,0.288 -0.932,0.288 -0.504,0 -0.903,-0.293 -0.903,-0.773 l 0,-0.01 c 0,-0.485 0.418,-0.639 0.792,-0.744 0.299,-0.092 0.568,-0.159 0.568,-0.356 l 0,-0.01 c 0,-0.168 -0.144,-0.274 -0.394,-0.274 -0.26,0 -0.558,0.106 -0.831,0.313 l -0.26,-0.394 c 0.317,-0.25 0.716,-0.379 1.076,-0.379 m 1.446,2.974 0.624,0 0,0.552 -0.624,0 0,-0.552 z m 0.024,-2.926 0.581,0 0,2.536 -0.581,0 0,-2.536 z M 28.146,0.01 c 0.217,0 0.38,0.048 0.524,0.129 l 0,0.475 C 28.555,0.557 28.439,0.528 28.31,0.528 c -0.197,0 -0.312,0.091 -0.312,0.317 l 0,1.245 0.682,0 0,0.499 -0.682,0 0,0.696 -0.581,0 0,-0.696 -0.322,0 0,-0.499 0.322,0 0,-1.336 c 0,-0.557 0.302,-0.744 0.729,-0.744 m 1.811,2.901 0.437,0 0.591,0.552 -0.528,0.236 -0.5,-0.788 z m 0.303,-2.916 c 0.466,0 0.797,0.187 1.037,0.475 l -0.34,0.303 C 30.755,0.576 30.553,0.47 30.269,0.47 c -0.374,0 -0.668,0.231 -0.73,0.645 l 1.864,0 c 0.005,0.057 0.01,0.11 0.01,0.163 0,0.73 -0.408,1.364 -1.216,1.364 -0.725,0 -1.239,-0.596 -1.239,-1.321 l 0,-0.01 c 0,-0.783 0.567,-1.316 1.302,-1.316 m -0.726,1.503 c 0.053,0.395 0.303,0.669 0.659,0.669 0.384,0 0.605,-0.294 0.644,-0.669 l -1.303,0 z M 34.295,0 c 0.413,0 0.678,0.211 0.865,0.475 l 0,-0.422 0.581,0 0,3.506 -0.581,0 0,-1.364 c -0.182,0.236 -0.447,0.447 -0.865,0.447 -0.605,0 -1.177,-0.475 -1.177,-1.316 l 0,-0.01 C 33.118,0.475 33.699,0 34.295,0 m 0.139,0.504 c -0.394,0 -0.73,0.322 -0.73,0.812 l 0,0.01 c 0,0.504 0.332,0.812 0.73,0.812 0.39,0 0.736,-0.322 0.736,-0.812 l 0,-0.01 c 0,-0.485 -0.346,-0.812 -0.736,-0.812 m 3.099,-0.509 c 0.466,0 0.798,0.187 1.038,0.475 L 38.23,0.773 C 38.028,0.576 37.826,0.47 37.543,0.47 c -0.375,0 -0.668,0.231 -0.731,0.645 l 1.864,0 c 0.005,0.057 0.01,0.11 0.01,0.163 0,0.73 -0.408,1.364 -1.215,1.364 -0.726,0 -1.239,-0.596 -1.239,-1.321 l 0,-0.01 c 0,-0.783 0.566,-1.316 1.301,-1.316 m -0.726,1.503 c 0.053,0.395 0.303,0.669 0.659,0.669 0.384,0 0.605,-0.294 0.644,-0.669 l -1.303,0 z m 3.782,-1.445 0.58,0 0,2.401 1.053,-1.575 0.019,0 1.062,1.585 0,-2.411 0.59,0 0,3.362 -0.628,0 -1.024,-1.59 -1.024,1.59 -0.628,0 0,-3.362 z m 5.212,-0.058 c 0.783,0 1.359,0.6 1.359,1.321 l 0,0.01 c 0,0.725 -0.571,1.316 -1.349,1.316 -0.779,0 -1.355,-0.6 -1.355,-1.326 l 0,-0.01 c 0,-0.72 0.571,-1.311 1.345,-1.311 m 0.01,0.504 c -0.452,0 -0.774,0.375 -0.774,0.817 l 0,0.01 c 0,0.442 0.298,0.807 0.764,0.807 0.456,0 0.778,-0.37 0.778,-0.817 l 0,-0.01 c 0,-0.437 -0.298,-0.807 -0.768,-0.807 m 1.845,-0.446 0.58,0 0,1.431 c 0,0.394 0.236,0.63 0.572,0.63 0.346,0 0.543,-0.226 0.543,-0.62 l 0,-1.441 0.581,0 0,1.614 c 0,0.591 -0.331,0.975 -0.903,0.975 -0.394,0 -0.629,-0.207 -0.793,-0.447 l 0,0.394 -0.58,0 0,-2.536 z M 51.388,0.01 c 0.216,0 0.379,0.048 0.523,0.129 l 0,0.475 c -0.115,-0.057 -0.23,-0.086 -0.36,-0.086 -0.197,0 -0.312,0.091 -0.312,0.317 l 0,1.245 0.682,0 0,0.499 -0.682,0 0,0.696 -0.581,0 0,-0.696 -0.322,0 0,-0.499 0.322,0 0,-1.336 c 0,-0.557 0.302,-0.744 0.73,-0.744 m 1.024,0.043 0.58,0 0,0.965 c 0,0.673 0.356,1.005 0.865,1.005 l 0.034,0 0,0.614 c -0.447,0.019 -0.74,-0.24 -0.899,-0.619 l 0,0.571 -0.58,0 0,-2.536 z m 2.66,2.858 0.438,0 0.591,0.552 -0.529,0.236 -0.5,-0.788 z m 0.303,-2.916 c 0.466,0 0.798,0.187 1.038,0.475 L 56.072,0.773 C 55.87,0.576 55.668,0.47 55.385,0.47 c -0.375,0 -0.668,0.231 -0.731,0.645 l 1.864,0 c 0.005,0.057 0.01,0.11 0.01,0.163 0,0.73 -0.408,1.364 -1.215,1.364 -0.726,0 -1.24,-0.596 -1.24,-1.321 l 0,-0.01 c 0,-0.783 0.567,-1.316 1.302,-1.316 m -0.726,1.503 c 0.053,0.395 0.303,0.669 0.659,0.669 0.384,0 0.605,-0.294 0.644,-0.669 l -1.303,0 z m 4.497,-1.445 0,1.503 c 0,0.678 -0.365,1.071 -1.114,1.071 -0.414,0 -0.688,-0.086 -0.966,-0.211 L 57.224,1.95 c 0.231,0.096 0.442,0.159 0.726,0.159 0.404,0 0.625,-0.192 0.625,-0.543 l 0,-0.048 c -0.197,0.062 -0.394,0.105 -0.702,0.105 -0.591,0 -1.028,-0.268 -1.028,-0.831 l 0,-0.009 C 56.845,0.273 57.268,0 57.748,0 c 0.385,0 0.649,0.158 0.822,0.365 l 0,-0.312 0.576,0 z M 58.584,0.97 c 0,-0.317 -0.288,-0.533 -0.673,-0.533 -0.274,0 -0.49,0.134 -0.49,0.375 l 0,0.009 c 0,0.245 0.216,0.394 0.582,0.394 0.226,0 0.432,-0.043 0.581,-0.1 l 0,-0.145 z m 1.192,-0.917 0.581,0 0,3.507 -0.581,0 0,-3.507 z"
           inkscape:connector-curvature="0" />
      </g>
      <g
         style="fill:#000000"
         transform="matrix(1.25,0,0,-1.25,364.03487,537.16812)"
         id="g3447">
        <path
           id="path3449"
           style="fill:#000000;fill-opacity:1;fill-rule:nonzero;stroke:none"
           d="M 0,0 C 0.629,0 1.014,0.23 1.364,0.595 L 0.985,0.979 C 0.697,0.71 0.432,0.542 0.019,0.542 c -0.644,0 -1.11,0.538 -1.11,1.197 l 0,0.009 c 0,0.659 0.466,1.187 1.11,1.187 0.385,0 0.673,-0.168 0.942,-0.418 L 1.34,2.954 C 1.018,3.262 0.644,3.478 0.024,3.478 -0.994,3.478 -1.71,2.695 -1.71,1.739 l 0,-0.01 C -1.71,0.763 -0.98,0 0,0 M 2.936,0 C 3.402,0 3.733,0.187 3.973,0.475 L 3.632,0.778 C 3.431,0.581 3.229,0.475 2.945,0.475 2.57,0.475 2.277,0.706 2.215,1.119 l 1.864,0 c 0.004,0.058 0.009,0.111 0.009,0.163 0,0.731 -0.408,1.364 -1.215,1.364 -0.726,0 -1.239,-0.595 -1.239,-1.32 l 0,-0.01 C 1.634,0.533 2.2,0 2.936,0 M 2.21,1.503 c 0.053,0.394 0.303,0.668 0.658,0.668 0.385,0 0.606,-0.293 0.644,-0.668 l -1.302,0 z m 2.369,-1.445 0.58,0 0,1.431 c 0,0.394 0.236,0.63 0.572,0.63 0.347,0 0.544,-0.226 0.544,-0.62 l 0,-1.441 0.58,0 0,1.614 C 6.855,2.263 6.524,2.646 5.953,2.646 5.558,2.646 5.323,2.44 5.159,2.2 l 0,0.394 -0.58,0 0,-2.536 z M 8.311,0.014 c 0.216,0 0.379,0.048 0.524,0.13 l 0,0.475 C 8.719,0.561 8.604,0.533 8.474,0.533 8.277,0.533 8.162,0.624 8.162,0.85 l 0,1.245 0.682,0 0,0.499 -0.682,0 0,0.696 -0.581,0 0,-0.696 -0.322,0 0,-0.499 0.322,0 0,-1.337 c 0,-0.556 0.303,-0.744 0.73,-0.744 m 1.024,0.044 0.58,0 0,0.965 c 0,0.673 0.356,1.004 0.865,1.004 l 0.034,0 0,0.615 C 10.367,2.661 10.074,2.402 9.915,2.023 l 0,0.571 -0.58,0 0,-2.536 z M 12.298,0 c 0.466,0 0.798,0.187 1.038,0.475 L 12.995,0.778 C 12.793,0.581 12.591,0.475 12.308,0.475 c -0.375,0 -0.668,0.231 -0.731,0.644 l 1.864,0 c 0.005,0.058 0.01,0.111 0.01,0.163 0,0.731 -0.408,1.364 -1.215,1.364 -0.726,0 -1.239,-0.595 -1.239,-1.32 l 0,-0.01 C 10.997,0.533 11.563,0 12.298,0 m -0.725,1.503 c 0.052,0.394 0.302,0.668 0.658,0.668 0.384,0 0.606,-0.293 0.644,-0.668 l -1.302,0 z m 3.714,-1.445 0.58,0 0,1.431 c 0,0.394 0.236,0.63 0.572,0.63 0.346,0 0.543,-0.226 0.543,-0.62 l 0,-1.441 0.581,0 0,1.614 c 0,0.591 -0.331,0.974 -0.903,0.974 -0.394,0 -0.629,-0.206 -0.793,-0.446 l 0,1.364 -0.58,0 0,-3.506 z M 19.375,0 c 0.783,0 1.359,0.6 1.359,1.321 l 0,0.009 c 0,0.726 -0.571,1.316 -1.35,1.316 -0.778,0 -1.354,-0.599 -1.354,-1.325 l 0,-0.01 C 18.03,0.59 18.601,0 19.375,0 m 0.009,0.504 c -0.452,0 -0.774,0.375 -0.774,0.817 l 0,0.009 c 0,0.443 0.298,0.808 0.765,0.808 0.456,0 0.778,-0.37 0.778,-0.817 l 0,-0.01 c 0,-0.437 -0.298,-0.807 -0.769,-0.807 M 22.098,0.01 c 0.529,0 0.942,0.263 0.942,0.797 l 0,0.009 c 0,0.457 -0.418,0.625 -0.788,0.74 -0.298,0.096 -0.572,0.173 -0.572,0.356 l 0,0.01 c 0,0.148 0.13,0.254 0.356,0.254 0.212,0 0.471,-0.091 0.716,-0.24 l 0.23,0.413 c -0.269,0.177 -0.614,0.288 -0.932,0.288 -0.504,0 -0.902,-0.293 -0.902,-0.773 l 0,-0.01 c 0,-0.485 0.417,-0.639 0.792,-0.745 0.298,-0.091 0.567,-0.158 0.567,-0.355 l 0,-0.01 c 0,-0.168 -0.144,-0.274 -0.394,-0.274 -0.26,0 -0.558,0.106 -0.831,0.313 L 21.023,0.389 C 21.34,0.139 21.738,0.01 22.098,0.01 m 1.437,-0.721 0.581,0 0,1.162 c 0.178,-0.235 0.442,-0.446 0.86,-0.446 0.606,0 1.182,0.475 1.182,1.316 l 0,0.009 c 0,0.841 -0.581,1.316 -1.182,1.316 -0.408,0 -0.673,-0.211 -0.86,-0.475 l 0,0.423 -0.581,0 0,-3.305 z m 1.307,1.22 c -0.394,0 -0.741,0.322 -0.741,0.811 l 0,0.01 c 0,0.486 0.347,0.813 0.741,0.813 0.394,0 0.725,-0.322 0.725,-0.813 l 0,-0.009 c 0,-0.5 -0.326,-0.812 -0.725,-0.812 m 1.825,2.474 0.624,0 0,0.552 -0.624,0 0,-0.552 z m 0.024,-2.925 0.581,0 0,2.536 -0.581,0 0,-2.536 z m 2.094,-0.044 c 0.217,0 0.38,0.048 0.524,0.13 l 0,0.475 c -0.115,-0.058 -0.23,-0.086 -0.36,-0.086 -0.197,0 -0.312,0.091 -0.312,0.317 l 0,1.245 0.682,0 0,0.499 -0.682,0 0,0.696 -0.581,0 0,-0.696 -0.322,0 0,-0.499 0.322,0 0,-1.337 c 0,-0.556 0.302,-0.744 0.729,-0.744 m 3.152,0.044 0,1.503 c 0,0.678 -0.365,1.071 -1.114,1.071 -0.414,0 -0.688,-0.086 -0.966,-0.211 l 0.158,-0.466 c 0.231,0.096 0.442,0.159 0.726,0.159 0.404,0 0.625,-0.193 0.625,-0.544 l 0,-0.048 c -0.197,0.063 -0.394,0.106 -0.702,0.106 -0.591,0 -1.028,-0.269 -1.028,-0.831 l 0,-0.009 c 0,-0.51 0.423,-0.783 0.903,-0.783 0.385,0 0.649,0.158 0.822,0.364 l 0,-0.311 0.576,0 z m -0.562,0.917 c 0,-0.317 -0.288,-0.534 -0.673,-0.534 -0.274,0 -0.49,0.135 -0.49,0.375 l 0,0.01 c 0,0.245 0.216,0.394 0.582,0.394 0.226,0 0.432,-0.043 0.581,-0.101 l 0,-0.144 z m 1.192,-0.917 0.581,0 0,3.507 -0.581,0 0,-3.507 z m 1.254,2.925 0.624,0 0,0.552 -0.624,0 0,-0.552 z m 0.024,-2.925 0.581,0 0,2.536 -0.581,0 0,-2.536 z M 36.251,0 c 0.466,0 0.798,0.187 1.038,0.475 L 36.948,0.778 C 36.746,0.581 36.544,0.475 36.261,0.475 c -0.375,0 -0.668,0.231 -0.731,0.644 l 1.864,0 c 0.005,0.058 0.01,0.111 0.01,0.163 0,0.731 -0.408,1.364 -1.215,1.364 -0.726,0 -1.239,-0.595 -1.239,-1.32 l 0,-0.01 C 34.95,0.533 35.516,0 36.251,0 m -0.726,1.503 c 0.053,0.394 0.303,0.668 0.659,0.668 0.384,0 0.606,-0.293 0.644,-0.668 l -1.303,0 z m 2.369,-1.445 0.581,0 0,0.965 c 0,0.673 0.356,1.004 0.865,1.004 l 0.034,0 0,0.615 c -0.447,0.019 -0.74,-0.24 -0.899,-0.619 l 0,0.571 -0.581,0 0,-2.536 z"
           inkscape:connector-curvature="0" />
      </g>
    </g>
  </g>
</svg>
