<?xml version="1.0" encoding="UTF-8" standalone="no"?>
<!-- Created with Inkscape (http://www.inkscape.org/) -->

<svg
   xmlns:dc="http://purl.org/dc/elements/1.1/"
   xmlns:cc="http://creativecommons.org/ns#"
   xmlns:rdf="http://www.w3.org/1999/02/22-rdf-syntax-ns#"
   xmlns:svg="http://www.w3.org/2000/svg"
   xmlns="http://www.w3.org/2000/svg"
   xmlns:sodipodi="http://sodipodi.sourceforge.net/DTD/sodipodi-0.dtd"
   xmlns:inkscape="http://www.inkscape.org/namespaces/inkscape"
   width="89.772873"
   height="75.019699"
   id="svg4023"
   version="1.1"
   inkscape:version="0.48.4 r9939"
   sodipodi:docname="Logo CHUM - Ancien - Bleu.svg">
  <defs
     id="defs4025" />
  <sodipodi:namedview
     id="base"
     pagecolor="#ffffff"
     bordercolor="#666666"
     borderopacity="1.0"
     inkscape:pageopacity="0.0"
     inkscape:pageshadow="2"
     inkscape:zoom="3.959798"
     inkscape:cx="186.61508"
     inkscape:cy="91.830065"
     inkscape:document-units="px"
     inkscape:current-layer="layer1"
     showgrid="false"
     showguides="true"
     inkscape:guide-bbox="true"
     fit-margin-top="5"
     fit-margin-left="5"
     fit-margin-right="5"
     fit-margin-bottom="5"
     inkscape:window-width="1680"
     inkscape:window-height="1001"
     inkscape:window-x="-4"
     inkscape:window-y="-4"
     inkscape:window-maximized="1" />
  <metadata
     id="metadata4028">
    <rdf:RDF>
      <cc:Work
         rdf:about="">
        <dc:format>image/svg+xml</dc:format>
        <dc:type
           rdf:resource="http://purl.org/dc/dcmitype/StillImage" />
        <dc:title></dc:title>
      </cc:Work>
    </rdf:RDF>
  </metadata>
  <g
     inkscape:label="Layer 1"
     inkscape:groupmode="layer"
     id="layer1"
     transform="translate(-355.55298,-474.01587)">
    <g
       transform="translate(-190.90499,-626.59303)"
       id="g4530">
      <path
         id="path4275"
         style="fill:#82b0e2;fill-opacity:1;fill-rule:nonzero;stroke:none"
         d="m 567.33459,1128.0627 22.45375,0 0,2.8075 -22.45375,0 0,-2.8075 z m 16.84,-19.6475 5.6125,0 0,16.84 -5.6125,0 0,-16.84 z m -8.42125,-2.8063 5.61375,0 0,16.84 -5.61375,0 0,-16.84 z m -8.41875,2.8063 5.61375,0 0,16.84 -5.61375,0 0,-16.84 z"
         inkscape:connector-curvature="0" />
      <path
         inkscape:connector-curvature="0"
         d="m 597.89297,1146.5097 -3.22,-4.5312 0,8.5375 -3.48125,0 0,-12.6275 2.915,0 c 0.64375,0.016 1.2125,0.37 1.565,0.91 l 2.22375,3.32 2.22625,-3.32 c 0.3525,-0.54 0.92125,-0.8937 1.565,-0.91 l 2.915,0 0,12.6275 -3.48125,0 0,-8.5375 -3.2275,4.5312 z m -35.665,-6.23 c -0.38,-0.086 -0.8475,-0.1737 -1.2225,-0.2075 -3.13875,-0.2737 -5.3,1.015 -5.3,4.0888 0,3.15 2.16125,4.365 5.3,4.09 0.34875,-0.03 0.81625,-0.13 1.2225,-0.2275 l 0,2.2925 c -0.67,0.11 -1.47875,0.22 -2.16125,0.2787 -5.1,0.4463 -8.5775,-2.395 -8.60875,-6.4337 0.0312,-4.0375 3.50875,-6.88 8.60875,-6.4325 0.6825,0.06 1.49125,0.17 2.16125,0.28 l 0,2.2712 z m 9.71,5.3175 -4.60125,0 0,4.9188 -3.80375,0 0,-12.6288 1.86625,0 c 1.055,0.026 1.90625,0.9488 1.9375,2.0963 l 0,2.8175 4.60125,0 0,-4.9138 3.81625,0 0,12.6288 -3.81625,0 0,-4.9188 z m 9.02375,-0.066 c 0,1.525 0.49625,2.82 2.5275,2.82 2.03125,0 2.495,-1.295 2.495,-2.82 l 0,-7.6438 3.80375,0 0,8.1588 c 0,3.1687 -2.4075,4.595 -6.29875,4.595 -3.895,0 -6.3325,-0.6675 -6.3325,-4.595 l 0,-8.1588 1.86625,0 c 1.055,0.026 1.9075,0.9588 1.93875,2.1163 l 0,5.5275 z"
         style="fill:#1063a5;fill-opacity:1;fill-rule:nonzero;stroke:none"
         id="path4287" />
      <path
         id="path4289"
         style="fill:#1063a5;fill-opacity:1;fill-rule:nonzero;stroke:none"
         d="m 630.48334,1170.5502 0.7475,0 0,-4.5275 -0.7475,0 0,4.5275 z m -1.54,-1.185 c 0,0.4137 -0.37125,0.69 -0.8675,0.69 -0.35625,0 -0.635,-0.1713 -0.635,-0.4825 l 0,-0.013 c 0,-0.3175 0.27875,-0.5088 0.7525,-0.5088 0.29,0 0.55875,0.056 0.75,0.1275 l 0,0.1863 z m 0.725,1.185 0,-1.9388 c 0,-0.8775 -0.46875,-1.3837 -1.43875,-1.3837 -0.53625,0 -0.88875,0.1112 -1.245,0.2737 l 0.2025,0.6013 c 0.29625,-0.125 0.57125,-0.205 0.935,-0.205 0.525,0 0.80875,0.2487 0.80875,0.7012 l 0,0.061 c -0.25375,-0.08 -0.51,-0.135 -0.90625,-0.135 -0.76375,0 -1.325,0.3475 -1.325,1.0712 l 0,0.013 c 0,0.6588 0.54375,1.0125 1.16625,1.0125 0.49375,0 0.835,-0.2062 1.06,-0.4725 l 0,0.4013 0.7425,0 z m -5.80375,-1.865 c 0.0662,-0.5088 0.39125,-0.8638 0.85,-0.8638 0.4975,0 0.77875,0.3775 0.83,0.8638 l -1.68,0 z m 0.935,1.9412 c 0.60125,0 1.0275,-0.2412 1.3375,-0.6137 l -0.43875,-0.3913 c -0.25875,0.2563 -0.52,0.3913 -0.88625,0.3913 -0.48375,0 -0.8625,-0.2975 -0.9425,-0.8338 l 2.405,0 c 0.008,-0.071 0.0125,-0.14 0.0125,-0.2087 0,-0.9438 -0.5275,-1.7613 -1.5675,-1.7613 -0.9375,0 -1.6025,0.7688 -1.6025,1.7063 l 0,0.013 c 0,1.0125 0.7325,1.6987 1.6825,1.6987 m -0.3925,-3.7662 0.56625,0 0.76125,-0.7125 -0.68375,-0.3038 -0.64375,1.0163 z m -3.5475,3.69 0.75125,0 0,-1.2438 c 0,-0.87 0.46,-1.2975 1.11625,-1.2975 l 0.0438,0 0,-0.7925 c -0.57875,-0.026 -0.955,0.3075 -1.16,0.8 l 0,-0.74 -0.75125,0 0,3.2738 z m -1.32125,0.059 c 0.28125,0 0.48875,-0.065 0.67625,-0.17 l 0,-0.6112 c -0.14625,0.074 -0.3,0.1125 -0.46625,0.1125 -0.25625,0 -0.4025,-0.12 -0.4025,-0.4113 l 0,-1.6087 0.88125,0 0,-0.6438 -0.88125,0 0,-0.8987 -0.75,0 0,0.8987 -0.4175,0 0,0.6438 0.4175,0 0,1.725 c 0,0.7212 0.39125,0.9637 0.9425,0.9637 m -4.82125,-0.059 0.75375,0 0,-1.8475 c 0,-0.51 0.305,-0.81 0.7375,-0.81 0.4475,0 0.70125,0.2887 0.70125,0.7962 l 0,1.8613 0.74875,0 0,-2.0825 c 0,-0.7625 -0.4275,-1.2588 -1.16625,-1.2588 -0.50875,0 -0.81125,0.2675 -1.02125,0.575 l 0,-0.5075 -0.75375,0 0,3.2738 z m -2.3825,-0.5738 c -0.58125,0 -0.99625,-0.485 -0.99625,-1.0562 l 0,-0.013 c 0,-0.5713 0.385,-1.0413 0.98375,-1.0413 0.59,0 1.005,0.4763 1.005,1.0538 l 0,0.013 c 0,0.5662 -0.3825,1.0437 -0.9925,1.0437 m -0.0125,0.65 c 1.0125,0 1.7575,-0.775 1.7575,-1.7062 l 0,-0.013 c 0,-0.935 -0.7375,-1.6988 -1.745,-1.6988 -1.00125,0 -1.74875,0.775 -1.74875,1.7113 l 0,0.013 c 0,0.93 0.74,1.6937 1.73625,1.6937 m -6.72875,-0.076 0.7475,0 0,-3.1 1.36125,2.0337 0.0275,0 1.37,-2.0462 0,3.1125 0.76125,0 0,-4.34 -0.81,0 -1.32125,2.0525 -1.32375,-2.0525 -0.8125,0 0,4.34 z m -4.8825,-1.865 c 0.0675,-0.5088 0.39,-0.8638 0.84875,-0.8638 0.49625,0 0.78375,0.3775 0.83,0.8638 l -1.67875,0 z m 0.9375,1.9412 c 0.6025,0 1.03,-0.2412 1.3375,-0.6137 l -0.44,-0.3913 c -0.26125,0.2563 -0.52,0.3913 -0.88375,0.3913 -0.4875,0 -0.86375,-0.2975 -0.94375,-0.8338 l 2.40375,0 c 0.008,-0.071 0.015,-0.14 0.015,-0.2087 0,-0.9438 -0.5275,-1.7613 -1.57,-1.7613 -0.94,0 -1.59875,0.7688 -1.59875,1.7063 l 0,0.013 c 0,1.0125 0.73,1.6987 1.68,1.6987 m -4,-0.6562 c -0.5125,0 -0.94625,-0.4163 -0.94625,-1.05 l 0,-0.013 c 0,-0.6513 0.42875,-1.0488 0.94625,-1.0488 0.50125,0 0.945,0.415 0.945,1.0488 l 0,0.013 c 0,0.6275 -0.44375,1.05 -0.945,1.05 m -0.1825,0.6512 c 0.535,0 0.87625,-0.2737 1.11625,-0.615 l 0,0.5438 0.75375,0 0,-4.5263 -0.75375,0 0,1.76 c -0.2325,-0.3025 -0.57625,-0.575 -1.11625,-0.575 -0.78125,0 -1.51875,0.6125 -1.51875,1.6988 l 0,0.013 c 0,1.0862 0.75,1.7012 1.51875,1.7012 m -6.1475,-1.9362 c 0.0687,-0.5088 0.3925,-0.8638 0.8525,-0.8638 0.4925,0 0.77875,0.3775 0.83,0.8638 l -1.6825,0 z m 0.9375,1.9412 c 0.6,0 1.0275,-0.2412 1.34,-0.6137 l -0.44125,-0.3913 c -0.25875,0.2563 -0.5175,0.3913 -0.88375,0.3913 -0.48875,0 -0.865,-0.2975 -0.945,-0.8338 l 2.4075,0 c 0.005,-0.071 0.009,-0.14 0.009,-0.2087 0,-0.9438 -0.52375,-1.7613 -1.56625,-1.7613 -0.9375,0 -1.6025,0.7688 -1.6025,1.7063 l 0,0.013 c 0,1.0125 0.7325,1.6987 1.6825,1.6987 m -0.3925,-3.7662 0.56625,0 0.76125,-0.7125 -0.68375,-0.3038 -0.64375,1.0163 z m -2.4325,3.7487 c 0.28125,0 0.49375,-0.065 0.67625,-0.17 l 0,-0.6112 c -0.14625,0.074 -0.295,0.1125 -0.46375,0.1125 -0.25375,0 -0.4025,-0.12 -0.4025,-0.4113 l 0,-1.6087 0.87875,0 0,-0.6438 -0.87875,0 0,-0.8987 -0.75,0 0,0.8987 -0.415,0 0,0.6438 0.415,0 0,1.725 c 0,0.7212 0.38875,0.9637 0.94,0.9637 m -2.7,-0.059 0.745,0 0,-3.2738 -0.745,0 0,3.2738 z m -0.0337,-3.7763 0.8075,0 0,-0.7112 -0.8075,0 0,0.7112 z m -1.87,3.8413 c 0.685,0 1.2175,-0.3413 1.2175,-1.03 l 0,-0.013 c 0,-0.5888 -0.53625,-0.8063 -1.0175,-0.9563 -0.38625,-0.125 -0.7375,-0.2237 -0.7375,-0.4575 l 0,-0.012 c 0,-0.195 0.16875,-0.33 0.45625,-0.33 0.27625,0 0.61,0.1175 0.93,0.31 l 0.29875,-0.5325 c -0.3525,-0.2312 -0.79625,-0.3712 -1.20625,-0.3712 -0.6525,0 -1.1675,0.3775 -1.1675,0.9962 l 0,0.012 c 0,0.6275 0.54,0.825 1.02375,0.9625 0.385,0.1188 0.73125,0.205 0.73125,0.46 l 0,0.011 c 0,0.2187 -0.185,0.355 -0.5075,0.355 -0.33375,0 -0.72,-0.1363 -1.07125,-0.405 l -0.3375,0.51 c 0.4075,0.32 0.92375,0.49 1.3875,0.49 m -3.555,-0.065 0.7475,0 0,-1.2438 c 0,-0.87 0.45875,-1.2975 1.1175,-1.2975 l 0.0438,0 0,-0.7925 c -0.57875,-0.026 -0.95625,0.3075 -1.16125,0.8 l 0,-0.74 -0.7475,0 0,3.2738 z m -3.0625,-1.865 c 0.07,-0.5088 0.39,-0.8638 0.85,-0.8638 0.49625,0 0.78125,0.3775 0.83,0.8638 l -1.68,0 z m 0.94,1.9412 c 0.59875,0 1.02875,-0.2412 1.33625,-0.6137 l -0.44,-0.3913 c -0.26125,0.2563 -0.52,0.3913 -0.88625,0.3913 -0.48375,0 -0.86375,-0.2975 -0.94375,-0.8338 l 2.40625,0 c 0.005,-0.071 0.015,-0.14 0.015,-0.2087 0,-0.9438 -0.53,-1.7613 -1.57,-1.7613 -0.93875,0 -1.60125,0.7688 -1.60125,1.7063 l 0,0.013 c 0,1.0125 0.73375,1.6987 1.68375,1.6987 m -3.8475,-0.051 0.675,0 1.34125,-3.2988 -0.79,0 -0.88375,2.4088 -0.88125,-2.4088 -0.8075,0 1.34625,3.2988 z m -2.64125,-0.025 0.7475,0 0,-3.2738 -0.7475,0 0,3.2738 z m -0.0312,-3.7763 0.805,0 0,-0.7112 -0.805,0 0,0.7112 z m -3.7375,3.7763 0.7525,0 0,-1.8475 c 0,-0.51 0.30125,-0.81 0.7375,-0.81 0.4475,0 0.70125,0.2887 0.70125,0.7962 l 0,1.8613 0.75125,0 0,-2.0825 c 0,-0.7625 -0.4275,-1.2588 -1.165,-1.2588 -0.51125,0 -0.81625,0.2675 -1.025,0.575 l 0,-0.5075 -0.7525,0 0,3.2738 z m -2.7025,0.071 c 1.135,0 1.8675,-0.6512 1.8675,-1.9487 l 0,-2.4625 -0.76375,0 0,2.5 c 0,0.8 -0.415,1.2087 -1.09125,1.2087 -0.6825,0 -1.1,-0.4337 -1.1,-1.24 l 0,-2.4687 -0.76125,0 0,2.5 c 0,1.26 0.7175,1.9112 1.84875,1.9112 m -3.565,-2.6562 c 0.63,-0.049 0.95875,-0.3413 0.95875,-1.0313 l 0,-0.7237 -0.82375,0 0,0.8487 0.315,0 c 0.03,0.3238 -0.1475,0.5138 -0.53,0.5838 l 0.08,0.3225 z m -1.455,2.585 0.75,0 0,-4.5275 -0.75,0 0,4.5275 z m -4.83875,-1.865 c 0.0675,-0.5088 0.3925,-0.8638 0.85,-0.8638 0.4975,0 0.78125,0.3775 0.83125,0.8638 l -1.68125,0 z m 0.9375,1.9412 c 0.60375,0 1.03,-0.2412 1.34125,-0.6137 l -0.44,-0.3913 c -0.2625,0.2563 -0.5225,0.3913 -0.88875,0.3913 -0.48375,0 -0.86375,-0.2975 -0.94375,-0.8338 l 2.4075,0 c 0.005,-0.071 0.0125,-0.14 0.0125,-0.2087 0,-0.9438 -0.52625,-1.7613 -1.56875,-1.7613 -0.9375,0 -1.60125,0.7688 -1.60125,1.7063 l 0,0.013 c 0,1.0125 0.73125,1.6987 1.68125,1.6987 m -4.00125,-0.6562 c -0.50875,0 -0.94375,-0.4163 -0.94375,-1.05 l 0,-0.013 c 0,-0.6513 0.42875,-1.0488 0.94375,-1.0488 0.50125,0 0.9475,0.415 0.9475,1.0488 l 0,0.013 c 0,0.6275 -0.44625,1.05 -0.9475,1.05 m -0.18125,0.6512 c 0.53375,0 0.87625,-0.2737 1.11625,-0.615 l 0,0.5438 0.75,0 0,-4.5263 -0.75,0 0,1.76 c -0.235,-0.3025 -0.57625,-0.575 -1.11625,-0.575 -0.7825,0 -1.52125,0.6125 -1.52125,1.6988 l 0,0.013 c 0,1.0862 0.75375,1.7012 1.52125,1.7012"
         inkscape:connector-curvature="0" />
      <path
         inkscape:connector-curvature="0"
         d="m 602.77097,1163.5983 0.7475,0 0,-1.2475 c 0,-0.87 0.46125,-1.2975 1.12,-1.2975 l 0.0412,0 0,-0.7925 c -0.57625,-0.026 -0.95625,0.31 -1.16125,0.7975 l 0,-0.7387 -0.7475,0 0,3.2787 z m -3.05625,-1.8675 c 0.0637,-0.51 0.3875,-0.8637 0.84625,-0.8637 0.49875,0 0.78,0.3787 0.8325,0.8637 l -1.67875,0 z m 0.935,1.9388 c 0.6,0 1.0275,-0.2425 1.34,-0.6125 l -0.4425,-0.3913 c -0.26,0.255 -0.51875,0.3913 -0.885,0.3913 -0.48375,0 -0.8625,-0.2975 -0.9425,-0.8313 l 2.40375,0 c 0.005,-0.075 0.0125,-0.1437 0.0125,-0.2125 0,-0.9412 -0.525,-1.76 -1.5675,-1.76 -0.9375,0 -1.60125,0.7688 -1.60125,1.7063 l 0,0.01 c 0,1.015 0.7325,1.7 1.6825,1.7 m -3.10625,-0.071 0.75,0 0,-3.2787 -0.75,0 0,3.2787 z m -0.0312,-3.7825 0.805,0 0,-0.7087 -0.805,0 0,0.7087 z m -1.62125,3.7825 0.75,0 0,-4.53 -0.75,0 0,4.53 z m -1.5375,-1.1862 c 0,0.4087 -0.37375,0.69 -0.87,0.69 -0.35375,0 -0.63375,-0.1738 -0.63375,-0.4863 l 0,-0.01 c 0,-0.3187 0.28,-0.5112 0.75125,-0.5112 0.2925,0 0.56125,0.056 0.7525,0.1312 l 0,0.1863 z m 0.7225,1.1862 0,-1.9437 c 0,-0.8738 -0.46875,-1.3813 -1.43875,-1.3813 -0.53125,0 -0.88625,0.1113 -1.245,0.2725 l 0.205,0.6013 c 0.29625,-0.125 0.56875,-0.205 0.9375,-0.205 0.52,0 0.80625,0.2462 0.80625,0.7012 l 0,0.06 c -0.25875,-0.079 -0.51,-0.135 -0.90375,-0.135 -0.76875,0 -1.33,0.3475 -1.33,1.0725 l 0,0.013 c 0,0.6588 0.54625,1.0125 1.16625,1.0125 0.49625,0 0.8375,-0.2062 1.0625,-0.47 l 0,0.4025 0.74,0 z m -4.07,0.054 c 0.28,0 0.4925,-0.062 0.68125,-0.1675 l 0,-0.615 c -0.15375,0.076 -0.2975,0.115 -0.46875,0.115 -0.25375,0 -0.40125,-0.1213 -0.40125,-0.4125 l 0,-1.6063 0.8825,0 0,-0.6462 -0.8825,0 0,-0.8963 -0.75125,0 0,0.8963 -0.415,0 0,0.6462 0.415,0 0,1.725 c 0,0.7213 0.39,0.9613 0.94,0.9613 m -2.7025,-0.054 0.7525,0 0,-3.2787 -0.7525,0 0,3.2787 z m -0.0325,-3.7825 0.8075,0 0,-0.7087 -0.8075,0 0,0.7087 z m -2.3575,3.1988 c -0.50875,0 -0.9525,-0.415 -0.9525,-1.05 l 0,-0.01 c 0,-0.6275 0.44375,-1.05 0.9525,-1.05 0.51,0 0.94,0.4175 0.94,1.0487 l 0,0.011 c 0,0.645 -0.4225,1.05 -0.94,1.05 m -1.6875,1.575 0.755,0 0,-1.5 c 0.22625,0.3037 0.56875,0.5762 1.1075,0.5762 0.78375,0 1.52625,-0.6162 1.52625,-1.7012 l 0,-0.011 c 0,-1.0862 -0.75,-1.7 -1.52625,-1.7 -0.525,0 -0.86875,0.275 -1.1075,0.6138 l 0,-0.5475 -0.755,0 0,4.27 z m -1.8525,-0.9313 c 0.68125,0 1.215,-0.34 1.215,-1.0275 l 0,-0.014 c 0,-0.59 -0.53625,-0.8063 -1.0175,-0.955 -0.38625,-0.1238 -0.7375,-0.225 -0.7375,-0.4613 l 0,-0.013 c 0,-0.1925 0.16875,-0.3275 0.46125,-0.3275 0.26875,0 0.60625,0.1188 0.9225,0.3113 l 0.29625,-0.5338 c -0.3475,-0.2312 -0.79125,-0.3737 -1.20125,-0.3737 -0.6525,0 -1.1675,0.3787 -1.1675,1 l 0,0.013 c 0,0.6262 0.54,0.825 1.02625,0.9625 0.3825,0.1175 0.73,0.2037 0.73,0.4575 l 0,0.015 c 0,0.2162 -0.18625,0.3512 -0.50875,0.3512 -0.33375,0 -0.7225,-0.135 -1.07125,-0.4025 l -0.3375,0.5075 c 0.41,0.3238 0.92375,0.49 1.39,0.49 m -3.51,-0.6375 c -0.58,0 -0.995,-0.485 -0.995,-1.0562 l 0,-0.011 c 0,-0.5725 0.38625,-1.0437 0.9875,-1.0437 0.59,0 1.005,0.4775 1.005,1.055 l 0,0.01 c 0,0.5675 -0.38625,1.0462 -0.9975,1.0462 m -0.008,0.6488 c 1.01,0 1.75625,-0.7725 1.75625,-1.705 l 0,-0.011 c 0,-0.9362 -0.73875,-1.7 -1.74875,-1.7 -1,0 -1.7425,0.7738 -1.7425,1.7113 l 0,0.01 c 0,0.935 0.735,1.695 1.735,1.695 m -5.27875,-0.071 0.75125,0 0,-1.85 c 0,-0.5075 0.30125,-0.8125 0.7375,-0.8125 0.445,0 0.70125,0.2913 0.70125,0.8 l 0,1.8625 0.75125,0 0,-2.0862 c 0,-0.7613 -0.4275,-1.2588 -1.1675,-1.2588 -0.50875,0 -0.81375,0.2663 -1.0225,0.575 l 0,-1.7587 -0.75125,0 0,4.5287 z m -4.795,-1.8675 c 0.0687,-0.51 0.39,-0.8637 0.85,-0.8637 0.49375,0 0.78125,0.3787 0.83125,0.8637 l -1.68125,0 z m 0.935,1.9388 c 0.60125,0 1.03,-0.2425 1.34125,-0.6125 l -0.44,-0.3913 c -0.26125,0.255 -0.52125,0.3913 -0.88875,0.3913 -0.48375,0 -0.8625,-0.2975 -0.9425,-0.8313 l 2.405,0 c 0.01,-0.075 0.015,-0.1437 0.015,-0.2125 0,-0.9412 -0.52875,-1.76 -1.57,-1.76 -0.9375,0 -1.6,0.7688 -1.6,1.7063 l 0,0.01 c 0,1.015 0.73,1.7 1.68,1.7 m -3.825,-0.071 0.74875,0 0,-1.2475 c 0,-0.87 0.46,-1.2975 1.1175,-1.2975 l 0.0425,0 0,-0.7925 c -0.57625,-0.026 -0.955,0.31 -1.16,0.7975 l 0,-0.7387 -0.74875,0 0,3.2787 z m -1.32125,0.054 c 0.2775,0 0.4875,-0.062 0.67625,-0.1675 l 0,-0.615 c -0.15125,0.076 -0.3,0.115 -0.4675,0.115 -0.255,0 -0.40125,-0.1213 -0.40125,-0.4125 l 0,-1.6063 0.87875,0 0,-0.6462 -0.87875,0 0,-0.8963 -0.7525,0 0,0.8963 -0.415,0 0,0.6462 0.415,0 0,1.725 c 0,0.7213 0.39125,0.9613 0.945,0.9613 m -4.82125,-0.054 0.74875,0 0,-1.85 c 0,-0.5075 0.30625,-0.8125 0.73875,-0.8125 0.4475,0 0.7025,0.2913 0.7025,0.8 l 0,1.8625 0.75,0 0,-2.0862 c 0,-0.7613 -0.42875,-1.2588 -1.1675,-1.2588 -0.50875,0 -0.81125,0.2663 -1.02375,0.575 l 0,-0.5087 -0.74875,0 0,3.2787 z m -3.06,-1.8675 c 0.0688,-0.51 0.38875,-0.8637 0.85,-0.8637 0.49875,0 0.7825,0.3787 0.8325,0.8637 l -1.6825,0 z m 0.94,1.9388 c 0.60125,0 1.03,-0.2425 1.33625,-0.6125 l -0.4375,-0.3913 c -0.26125,0.255 -0.5225,0.3913 -0.88875,0.3913 -0.485,0 -0.865,-0.2975 -0.945,-0.8313 l 2.40875,0 c 0.006,-0.075 0.0137,-0.1437 0.0137,-0.2125 0,-0.9412 -0.52875,-1.76 -1.57,-1.76 -0.9375,0 -1.6,0.7688 -1.6,1.7063 l 0,0.01 c 0,1.015 0.73,1.7 1.6825,1.7 m -3.7925,0 c 0.8125,0 1.3075,-0.2963 1.7625,-0.7675 l -0.49,-0.4963 c -0.37375,0.3463 -0.71375,0.5638 -1.24875,0.5638 -0.83,0 -1.43125,-0.6938 -1.43125,-1.5438 l 0,-0.011 c 0,-0.8513 0.60125,-1.5338 1.43125,-1.5338 0.4975,0 0.87,0.2175 1.2175,0.54 l 0.4875,-0.565 c -0.415,-0.3962 -0.89875,-0.675 -1.6975,-0.675 -1.315,0 -2.24,1.01 -2.24,2.245 l 0,0.011 c 0,1.2487 0.9425,2.2325 2.20875,2.2325"
         style="fill:#1063a5;fill-opacity:1;fill-rule:nonzero;stroke:none"
         id="path4293" />
    </g>
  </g>
</svg>
